<?xml version="1.0" encoding="UTF-8" standalone="no"?>
<!-- Created with Inkscape (http://www.inkscape.org/) -->

<svg
   xmlns:dc="http://purl.org/dc/elements/1.1/"
   xmlns:cc="http://creativecommons.org/ns#"
   xmlns:rdf="http://www.w3.org/1999/02/22-rdf-syntax-ns#"
   xmlns:svg="http://www.w3.org/2000/svg"
   xmlns="http://www.w3.org/2000/svg"
   xmlns:sodipodi="http://sodipodi.sourceforge.net/DTD/sodipodi-0.dtd"
   xmlns:inkscape="http://www.inkscape.org/namespaces/inkscape"
   width="18"
   height="18"
   id="svg4703"
   version="1.1"
   inkscape:version="0.91 r13725"
   sodipodi:docname="page-indicator-active.svg">
  <defs
     id="defs4705" />
  <sodipodi:namedview
     id="base"
     pagecolor="#ffffff"
     bordercolor="#666666"
     borderopacity="1.0"
     inkscape:pageopacity="0.0"
     inkscape:pageshadow="2"
     inkscape:zoom="31.392433"
     inkscape:cx="-4.0085292"
     inkscape:cy="10.759406"
     inkscape:current-layer="layer1"
     showgrid="true"
     inkscape:grid-bbox="true"
     inkscape:document-units="px"
     inkscape:window-width="1920"
     inkscape:window-height="1016"
     inkscape:window-x="0"
     inkscape:window-y="27"
     inkscape:window-maximized="1">
    <inkscape:grid
       type="xygrid"
       id="grid6140" />
  </sodipodi:namedview>
  <metadata
     id="metadata4708">
    <rdf:RDF>
      <cc:Work
         rdf:about="">
        <dc:format>image/svg+xml</dc:format>
        <dc:type
           rdf:resource="http://purl.org/dc/dcmitype/StillImage" />
        <dc:title />
      </cc:Work>
    </rdf:RDF>
  </metadata>
  <g
     id="layer1"
     inkscape:label="Layer 1"
     inkscape:groupmode="layer"
     transform="translate(0,2)">
    <circle
       r="8"
       cy="7"
       cx="9"
       id="path4711-8"
       style="fill:#000000;fill-opacity:1;stroke:none;opacity:0.2" />
    <path
       transform="matrix(0.54617904,0,0,0.62523128,-1131.9904,-392.39214)"
       d="m 2099.9808,638.83099 a 10.985409,9.5964489 0 0 1 -10.9854,9.59645 10.985409,9.5964489 0 0 1 -10.9854,-9.59645 10.985409,9.5964489 0 0 1 10.9854,-9.59645 10.985409,9.5964489 0 0 1 10.9854,9.59645 z"
       sodipodi:ry="9.5964489"
       sodipodi:rx="10.985409"
       sodipodi:cy="638.83099"
       sodipodi:cx="2088.9954"
       id="path4711"
       style="fill:#009bf7;fill-opacity:1;stroke:none"
       sodipodi:type="arc" />
    <path
       style="fill:#ffffff;fill-opacity:1;stroke:none;opacity:0.1"
       d="m 8.932,0.8580465 a 6,6 0 0 0 -6,5.9999999 A 6,6 0 0 0 2.957391,7.356093 6,6 0 0 1 8.932,1.8580464 6,6 0 0 1 14.90661,7.36 6,6 0 0 0 14.932,6.8580464 a 6,6 0 0 0 -6,-5.9999999 z"
       id="path4711-3"
       inkscape:connector-curvature="0" />
  </g>
</svg>
