<?xml version="1.0" encoding="UTF-8" standalone="no"?>
<!-- Generator: Adobe Illustrator 13.0.2, SVG Export Plug-In . SVG Version: 6.00 Build 14948)  -->

<svg
   xmlns:dc="http://purl.org/dc/elements/1.1/"
   xmlns:cc="http://creativecommons.org/ns#"
   xmlns:rdf="http://www.w3.org/1999/02/22-rdf-syntax-ns#"
   xmlns:svg="http://www.w3.org/2000/svg"
   xmlns="http://www.w3.org/2000/svg"
   xmlns:xlink="http://www.w3.org/1999/xlink"
   xmlns:sodipodi="http://sodipodi.sourceforge.net/DTD/sodipodi-0.dtd"
   xmlns:inkscape="http://www.inkscape.org/namespaces/inkscape"
   version="1.0"
   id="Foreground"
   x="0px"
   y="0px"
   width="32"
   height="32"
   viewBox="0 0 23.272727 23.272727"
   enable-background="new 0 0 16 16"
   xml:space="preserve"
   sodipodi:version="0.32"
   inkscape:version="0.91 r13725"
   sodipodi:docname="close-hover.svg"
   inkscape:output_extension="org.inkscape.output.svg.inkscape"><metadata
     id="metadata2399"><rdf:RDF><cc:Work
         rdf:about=""><dc:format>image/svg+xml</dc:format><dc:type
           rdf:resource="http://purl.org/dc/dcmitype/StillImage" /><dc:title></dc:title></cc:Work></rdf:RDF></metadata><defs
     id="defs2397"><linearGradient
       inkscape:collect="always"
       xlink:href="#linearGradient4225"
       id="linearGradient3835"
       gradientUnits="userSpaceOnUse"
       gradientTransform="matrix(1.2852095,0,0,1.3692554,1.7873971,0.94888104)"
       x1="7.9643841"
       y1="1.1360223"
       x2="7.999999"
       y2="14.003025" /><linearGradient
       id="linearGradient4225"><stop
         id="stop4227"
         offset="0"
         style="stop-color:#aaaaaa;stop-opacity:0.1" /><stop
         style="stop-color:#000000;stop-opacity:0"
         offset="0.18601279"
         id="stop4229" /><stop
         id="stop4231"
         offset="1"
         style="stop-color:#000000;stop-opacity:0" /></linearGradient><linearGradient
       inkscape:collect="always"
       xlink:href="#linearGradient4217"
       id="linearGradient3842"
       x1="0"
       y1="-8"
       x2="14"
       y2="-8"
       gradientUnits="userSpaceOnUse"
       gradientTransform="matrix(1.2265827,0,0,1.2435066,2.6352881,-2.0810381)" /><linearGradient
       id="linearGradient4217"><stop
         id="stop4219"
         offset="0"
         style="stop-color:#ffffff;stop-opacity:0.08" /><stop
         style="stop-color:#000700;stop-opacity:0.03137255"
         offset="0.38817409"
         id="stop4221" /><stop
         id="stop4223"
         offset="1"
         style="stop-color:#000000;stop-opacity:0.08" /></linearGradient><linearGradient
       inkscape:collect="always"
       xlink:href="#linearGradient4226"
       id="linearGradient3841"
       gradientUnits="userSpaceOnUse"
       gradientTransform="matrix(1.2065942,0,0,1.284731,2.4205178,1.6135057)"
       x1="8.0000019"
       y1="0.97838485"
       x2="8.0000019"
       y2="1.27956" /><linearGradient
       id="linearGradient4226"><stop
         id="stop4228"
         offset="0"
         style="stop-color:#363636;stop-opacity:1" /><stop
         style="stop-color:#222222;stop-opacity:1"
         offset="1"
         id="stop4230" /><stop
         id="stop4232"
         offset="1"
         style="stop-color:#363636;stop-opacity:1" /></linearGradient></defs><sodipodi:namedview
     inkscape:window-height="1016"
     inkscape:window-width="1920"
     inkscape:pageshadow="2"
     inkscape:pageopacity="0"
     guidetolerance="10.0"
     gridtolerance="10.0"
     objecttolerance="10.0"
     borderopacity="1.0"
     bordercolor="#666666"
     pagecolor="#ffffff"
     id="base"
     showgrid="true"
     inkscape:zoom="18.37"
     inkscape:cx="-4.609423"
     inkscape:cy="13.490059"
     inkscape:window-x="0"
     inkscape:window-y="27"
     inkscape:current-layer="Foreground"
     showguides="true"
     inkscape:guide-bbox="true"
     borderlayer="true"
     inkscape:showpageshadow="false"
     inkscape:window-maximized="1"><inkscape:grid
       type="xygrid"
       id="grid11246"
       empspacing="5"
       visible="true"
       enabled="true"
       snapvisiblegridlinesonly="true" /></sodipodi:namedview><rect
     ry="1.2319988"
     rx="1.2152315"
     y="-20.733637"
     x="2.635288"
     height="17.409092"
     width="17.172159"
     id="rect17861-6-1-3"
     style="color:#000000;display:inline;overflow:visible;visibility:visible;fill:url(#linearGradient3842);fill-opacity:1;stroke:none;stroke-width:1.03780603;marker:none;enable-background:accumulate"
     transform="matrix(0,1,-1,0,0,0)" /><rect
     ry="1.0177876"
     rx="1.020933"
     y="3.002764"
     x="3.7152107"
     height="16.431061"
     width="16.707724"
     id="rect17861-6"
     style="color:#000000;display:inline;overflow:visible;visibility:visible;opacity:1;fill:none;stroke:url(#linearGradient3835);stroke-width:0.75953794;stroke-miterlimit:4;stroke-dasharray:none;stroke-opacity:1;marker:none;enable-background:accumulate" /><rect
     ry="1.767418"
     rx="1.770586"
     y="2.1823981"
     x="2.9579945"
     height="19.316826"
     width="18.144857"
     id="rect17861-2"
     style="color:#000000;display:inline;overflow:visible;visibility:visible;opacity:0.4;fill:none;stroke:#ffffff;stroke-width:0.73676658;stroke-miterlimit:4;stroke-dasharray:none;stroke-opacity:0.2;marker:none;enable-background:accumulate" /><rect
     ry="1.6650358"
     rx="1.6680204"
     y="2.2558713"
     x="3.0238142"
     height="17.986233"
     width="18.098913"
     id="rect17861-9"
     style="color:#000000;display:inline;overflow:visible;visibility:visible;fill:none;stroke:url(#linearGradient3841);stroke-width:0.75112396;stroke-miterlimit:4;stroke-dasharray:none;stroke-opacity:1;marker:none;enable-background:accumulate" /><g
     inkscape:label="window-close"
     id="g27275-6-6-6"
     style="fill:#000000;fill-opacity:1;display:inline"
     transform="matrix(0.72727272,0,0,0.72727272,7.0852908,4.9656581)"><g
       transform="translate(-41,-760)"
       id="g27277-1-1-2"
       style="fill:#000000;fill-opacity:1;display:inline"><path
         d="m 44.226475,764.17222 1,0 c 0.01037,-1.2e-4 0.02079,-4.6e-4 0.03125,0 0.254951,0.0112 0.50987,0.12858 0.6875,0.3125 l 2.28125,2.28125 2.3125,-2.28125 c 0.265625,-0.2305 0.446672,-0.3055 0.6875,-0.3125 l 1,0 0,1 c 0,0.28647 -0.03434,0.55065 -0.25,0.75 l -2.28125,2.28125 2.25,2.25 c 0.188188,0.18817 0.281242,0.45345 0.28125,0.71875 l 0,1 -1,0 c -0.265301,-1e-5 -0.530586,-0.0931 -0.71875,-0.28125 l -2.28125,-2.28125 -2.28125,2.28125 c -0.188164,0.18819 -0.45346,0.28125 -0.71875,0.28125 l -1,0 0,-1 c -3e-6,-0.26529 0.09306,-0.53058 0.28125,-0.71875 l 2.28125,-2.25 -2.28125,-2.28125 c -0.210742,-0.19463 -0.30316,-0.46925 -0.28125,-0.75 l 0,-1 z"
         inkscape:connector-curvature="0"
         id="path27279-0-5-8"
         style="font-size:medium;font-style:normal;font-variant:normal;font-weight:normal;font-stretch:normal;text-indent:0;text-align:start;text-decoration:none;line-height:normal;letter-spacing:normal;word-spacing:normal;text-transform:none;direction:ltr;block-progression:tb;writing-mode:lr-tb;text-anchor:start;color:#bebebe;fill:#00070b;fill-opacity:1;fill-rule:nonzero;stroke:none;stroke-width:1.78124988;marker:none;visibility:visible;display:inline;overflow:visible;enable-background:new;font-family:Andale Mono;-inkscape-font-specification:Andale Mono"
         sodipodi:nodetypes="ccsccccccccccccccccccccccc" /></g></g><g
     inkscape:label="window-close"
     id="g27275-6-6"
     style="fill:#ffffff;fill-opacity:1;display:inline"
     transform="matrix(0.72727273,0,0,0.72727273,7.1136362,5.7201428)"><g
       transform="translate(-41,-760)"
       id="g27277-1-1"
       style="fill:#ffffff;fill-opacity:1;display:inline"><path
         d="m 44.226475,764.17222 1,0 c 0.01037,-1.2e-4 0.02079,-4.6e-4 0.03125,0 0.254951,0.0112 0.50987,0.12858 0.6875,0.3125 l 2.28125,2.28125 2.3125,-2.28125 c 0.265625,-0.2305 0.446672,-0.3055 0.6875,-0.3125 l 1,0 0,1 c 0,0.28647 -0.03434,0.55065 -0.25,0.75 l -2.28125,2.28125 2.25,2.25 c 0.188188,0.18817 0.281242,0.45345 0.28125,0.71875 l 0,1 -1,0 c -0.265301,-1e-5 -0.530586,-0.0931 -0.71875,-0.28125 l -2.28125,-2.28125 -2.28125,2.28125 c -0.188164,0.18819 -0.45346,0.28125 -0.71875,0.28125 l -1,0 0,-1 c -3e-6,-0.26529 0.09306,-0.53058 0.28125,-0.71875 l 2.28125,-2.25 -2.28125,-2.28125 c -0.210742,-0.19463 -0.30316,-0.46925 -0.28125,-0.75 l 0,-1 z"
         inkscape:connector-curvature="0"
         id="path27279-0-5"
         style="font-size:medium;font-style:normal;font-variant:normal;font-weight:normal;font-stretch:normal;text-indent:0;text-align:start;text-decoration:none;line-height:normal;letter-spacing:normal;word-spacing:normal;text-transform:none;direction:ltr;block-progression:tb;writing-mode:lr-tb;text-anchor:start;color:#bebebe;fill:#ffffff;fill-opacity:1;fill-rule:nonzero;stroke:none;stroke-width:1.78124988;marker:none;visibility:visible;display:inline;overflow:visible;enable-background:new;font-family:Andale Mono;-inkscape-font-specification:Andale Mono"
         sodipodi:nodetypes="ccsccccccccccccccccccccccc" /></g></g></svg>