<?xml version="1.0" encoding="UTF-8" standalone="no"?>
<!-- Generator: Adobe Illustrator 13.0.2, SVG Export Plug-In . SVG Version: 6.00 Build 14948)  -->

<svg
   xmlns:dc="http://purl.org/dc/elements/1.1/"
   xmlns:cc="http://creativecommons.org/ns#"
   xmlns:rdf="http://www.w3.org/1999/02/22-rdf-syntax-ns#"
   xmlns:svg="http://www.w3.org/2000/svg"
   xmlns="http://www.w3.org/2000/svg"
   xmlns:xlink="http://www.w3.org/1999/xlink"
   xmlns:sodipodi="http://sodipodi.sourceforge.net/DTD/sodipodi-0.dtd"
   xmlns:inkscape="http://www.inkscape.org/namespaces/inkscape"
   version="1.0"
   id="Foreground"
   x="0px"
   y="0px"
   width="32"
   height="32"
   viewBox="0 0 23.272727 23.272727"
   enable-background="new 0 0 16 16"
   xml:space="preserve"
   sodipodi:version="0.32"
   inkscape:version="0.91 r13725"
   sodipodi:docname="max-active.svg"
   inkscape:output_extension="org.inkscape.output.svg.inkscape"><metadata
     id="metadata2399"><rdf:RDF><cc:Work
         rdf:about=""><dc:format>image/svg+xml</dc:format><dc:type
           rdf:resource="http://purl.org/dc/dcmitype/StillImage" /><dc:title></dc:title></cc:Work></rdf:RDF></metadata><defs
     id="defs2397"><linearGradient
       inkscape:collect="always"
       xlink:href="#linearGradient4217"
       id="linearGradient3842"
       x1="0"
       y1="-8"
       x2="14"
       y2="-8"
       gradientUnits="userSpaceOnUse"
       gradientTransform="matrix(1.2241616,0,0,1.2533772,-0.10612201,14.06643)" /><linearGradient
       id="linearGradient4217"><stop
         id="stop4219"
         offset="0"
         style="stop-color:#000000;stop-opacity:0.2" /><stop
         style="stop-color:#000000;stop-opacity:0.15000001"
         offset="0.40000001"
         id="stop4221" /><stop
         id="stop4223"
         offset="1"
         style="stop-color:#000000;stop-opacity:0.1" /></linearGradient><linearGradient
       inkscape:collect="always"
       xlink:href="#linearGradient4568"
       id="linearGradient3835-8"
       gradientUnits="userSpaceOnUse"
       gradientTransform="matrix(1.2746364,0,0,1.3664273,-14.273049,-1.7847438)"
       x1="7.9643841"
       y1="1.1360223"
       x2="7.999999"
       y2="14.003025" /><linearGradient
       id="linearGradient4568"><stop
         id="stop4570"
         offset="0"
         style="stop-color:#000000;stop-opacity:0.12" /><stop
         style="stop-color:#000000;stop-opacity:0"
         offset="0.13344744"
         id="stop4572" /><stop
         id="stop4574"
         offset="1"
         style="stop-color:#000000;stop-opacity:0" /></linearGradient><linearGradient
       inkscape:collect="always"
       xlink:href="#linearGradient4225"
       id="linearGradient3835"
       gradientUnits="userSpaceOnUse"
       gradientTransform="matrix(1.2749442,0,0,1.3716196,-14.271417,-1.8380573)"
       x1="7.9643841"
       y1="1.1360223"
       x2="7.999999"
       y2="14.003025" /><linearGradient
       id="linearGradient4225"><stop
         id="stop4227"
         offset="0"
         style="stop-color:#000000;stop-opacity:0.15000001" /><stop
         style="stop-color:#000000;stop-opacity:0.15000001"
         offset="0.49273404"
         id="stop4229" /><stop
         id="stop4231"
         offset="1"
         style="stop-color:#000000;stop-opacity:0.04" /></linearGradient><linearGradient
       inkscape:collect="always"
       xlink:href="#linearGradient4375"
       id="linearGradient3841"
       gradientUnits="userSpaceOnUse"
       gradientTransform="matrix(1.2066215,0,0,1.2847734,-13.717107,-1.1623953)"
       x1="7.9562192"
       y1="0.10053539"
       x2="7.9562192"
       y2="14.73528" /><linearGradient
       id="linearGradient4375"><stop
         id="stop4377"
         offset="0"
         style="stop-color:#363636;stop-opacity:1" /><stop
         style="stop-color:#424242;stop-opacity:1"
         offset="0.96000123"
         id="stop4379" /><stop
         id="stop4381"
         offset="1"
         style="stop-color:#424242;stop-opacity:1" /></linearGradient><linearGradient
       inkscape:collect="always"
       xlink:href="#linearGradient4225"
       id="linearGradient3835-4"
       gradientUnits="userSpaceOnUse"
       gradientTransform="matrix(1.155429,0,0,1.2365394,-13.334526,-0.84548745)"
       x1="7.9643841"
       y1="1.1360223"
       x2="7.999999"
       y2="14.003025" /></defs><sodipodi:namedview
     inkscape:window-height="1016"
     inkscape:window-width="1920"
     inkscape:pageshadow="2"
     inkscape:pageopacity="0"
     guidetolerance="10.0"
     gridtolerance="10.0"
     objecttolerance="10.0"
     borderopacity="1.0"
     bordercolor="#666666"
     pagecolor="#ffffff"
     id="base"
     showgrid="true"
     inkscape:zoom="17.139816"
     inkscape:cx="-6.4400236"
     inkscape:cy="13.561115"
     inkscape:window-x="0"
     inkscape:window-y="27"
     inkscape:current-layer="Foreground"
     showguides="true"
     inkscape:guide-bbox="true"
     borderlayer="true"
     inkscape:showpageshadow="false"
     inkscape:window-maximized="1"><inkscape:grid
       type="xygrid"
       id="grid11246"
       empspacing="5"
       visible="true"
       enabled="true"
       snapvisiblegridlinesonly="true" /></sodipodi:namedview><g
     transform="translate(0.02342704,0.01343027)"
     id="g4326"><rect
       style="color:#000000;display:inline;overflow:visible;visibility:visible;opacity:0.3;fill:none;stroke:#ffffff;stroke-width:0.73676658;stroke-miterlimit:4;stroke-dasharray:none;stroke-opacity:0.5;marker:none;enable-background:accumulate"
       id="rect17861-2"
       width="18.145267"
       height="19.041851"
       x="2.9437163"
       y="2.610512"
       rx="1.8114531"
       ry="1.7824316" /><g
       transform="translate(16.088884,3.2728992)"
       id="g4209"><rect
         ry="1.4499776"
         rx="1.4161794"
         y="-4.7342262"
         x="-0.10612188"
         height="17.547279"
         width="17.138262"
         id="rect17861-6-1-3"
         style="color:#000000;display:inline;overflow:visible;visibility:visible;fill:url(#linearGradient3842);fill-opacity:1;stroke:none;stroke-width:1.03780603;marker:none;enable-background:accumulate"
         transform="matrix(0,1,-1,0,0,0)" /><rect
         ry="0.84904993"
         rx="0.84641564"
         y="0.26489723"
         x="-12.361094"
         height="16.397123"
         width="16.570276"
         id="rect17861-6-5"
         style="color:#000000;display:inline;overflow:visible;visibility:visible;opacity:1;fill:none;stroke:url(#linearGradient3835-8);stroke-width:0.75953799;stroke-miterlimit:4;stroke-dasharray:none;stroke-opacity:1;marker:none;enable-background:accumulate" /><rect
         ry="1.1465553"
         rx="1.1389463"
         y="0.21937142"
         x="-12.359005"
         height="16.459427"
         width="16.574278"
         id="rect17861-6"
         style="color:#000000;display:inline;overflow:visible;visibility:visible;opacity:1;fill:none;stroke:url(#linearGradient3835);stroke-width:0.75953805;stroke-miterlimit:4;stroke-dasharray:none;stroke-opacity:1;marker:none;enable-background:accumulate" /><rect
         ry="1.7457018"
         rx="1.7488128"
         y="-0.52000856"
         x="-13.113797"
         height="17.986826"
         width="18.099323"
         id="rect17861-9"
         style="color:#000000;display:inline;overflow:visible;visibility:visible;fill:none;stroke:url(#linearGradient3841);stroke-width:0.75112396;stroke-miterlimit:4;stroke-dasharray:none;stroke-opacity:1;marker:none;enable-background:accumulate" /><rect
         ry="0.44522387"
         rx="0.44522387"
         y="1.0093215"
         x="-11.60138"
         height="14.838471"
         width="15.020577"
         id="rect17861-6-9"
         style="color:#000000;display:inline;overflow:visible;visibility:visible;opacity:1;fill:none;stroke:url(#linearGradient3835-4);stroke-width:0.72457194;stroke-miterlimit:4;stroke-dasharray:none;stroke-opacity:1;marker:none;enable-background:accumulate" /></g></g><path
     inkscape:connector-curvature="0"
     style="opacity:1;fill:#00070b;fill-opacity:1;stroke:none;stroke-width:1;stroke-miterlimit:4;stroke-dasharray:none;stroke-opacity:0.09411765"
     d="m 9.4545446,7.9726715 0,0.03835 0,2.0369325 0,2.326704 0,1.454546 5.8181814,0 0,-1.454546 0,-2.326704 0,-2.0369325 0,-0.03835 -5.8181814,0 z m 1.4545454,2.0752845 2.909091,0 0,2.326704 -2.909091,0 0,-2.326704 z"
     id="rect4140-7" /><g
     inkscape:label="window-close"
     id="g27275-6-6-6"
     style="display:inline;fill:#000000;fill-opacity:1"
     transform="matrix(0.72727272,0,0,0.72727272,-10.829526,0.79701801)"><g
       transform="translate(-41,-760)"
       id="g27277-1-1-2"
       style="display:inline;fill:#000000;fill-opacity:1"><path
         d="m 44.226475,764.17222 1,0 c 0.01037,-1.2e-4 0.02079,-4.6e-4 0.03125,0 0.254951,0.0112 0.50987,0.12858 0.6875,0.3125 l 2.28125,2.28125 2.3125,-2.28125 c 0.265625,-0.2305 0.446672,-0.3055 0.6875,-0.3125 l 1,0 0,1 c 0,0.28647 -0.03434,0.55065 -0.25,0.75 l -2.28125,2.28125 2.25,2.25 c 0.188188,0.18817 0.281242,0.45345 0.28125,0.71875 l 0,1 -1,0 c -0.265301,-1e-5 -0.530586,-0.0931 -0.71875,-0.28125 l -2.28125,-2.28125 -2.28125,2.28125 c -0.188164,0.18819 -0.45346,0.28125 -0.71875,0.28125 l -1,0 0,-1 c -3e-6,-0.26529 0.09306,-0.53058 0.28125,-0.71875 l 2.28125,-2.25 -2.28125,-2.28125 c -0.210742,-0.19463 -0.30316,-0.46925 -0.28125,-0.75 l 0,-1 z"
         inkscape:connector-curvature="0"
         id="path27279-0-5-8"
         style="color:#bebebe;font-style:normal;font-variant:normal;font-weight:normal;font-stretch:normal;font-size:medium;line-height:normal;font-family:'Andale Mono';-inkscape-font-specification:'Andale Mono';text-indent:0;text-align:start;text-decoration:none;text-decoration-line:none;letter-spacing:normal;word-spacing:normal;text-transform:none;direction:ltr;block-progression:tb;writing-mode:lr-tb;text-anchor:start;display:inline;overflow:visible;visibility:visible;fill:#00070b;fill-opacity:1;fill-rule:nonzero;stroke:none;stroke-width:1.78124988;marker:none;enable-background:new"
         sodipodi:nodetypes="ccsccccccccccccccccccccccc" /></g></g><g
     inkscape:label="window-close"
     id="g27275-6-6"
     style="display:inline;fill:#ffffff;fill-opacity:1"
     transform="matrix(0.72727273,0,0,0.72727273,-10.387762,5.5823365)"><g
       transform="translate(-41,-760)"
       id="g27277-1-1"
       style="display:inline;fill:#ffffff;fill-opacity:1"><path
         d="m 44.226475,764.17222 1,0 c 0.01037,-1.2e-4 0.02079,-4.6e-4 0.03125,0 0.254951,0.0112 0.50987,0.12858 0.6875,0.3125 l 2.28125,2.28125 2.3125,-2.28125 c 0.265625,-0.2305 0.446672,-0.3055 0.6875,-0.3125 l 1,0 0,1 c 0,0.28647 -0.03434,0.55065 -0.25,0.75 l -2.28125,2.28125 2.25,2.25 c 0.188188,0.18817 0.281242,0.45345 0.28125,0.71875 l 0,1 -1,0 c -0.265301,-1e-5 -0.530586,-0.0931 -0.71875,-0.28125 l -2.28125,-2.28125 -2.28125,2.28125 c -0.188164,0.18819 -0.45346,0.28125 -0.71875,0.28125 l -1,0 0,-1 c -3e-6,-0.26529 0.09306,-0.53058 0.28125,-0.71875 l 2.28125,-2.25 -2.28125,-2.28125 c -0.210742,-0.19463 -0.30316,-0.46925 -0.28125,-0.75 l 0,-1 z"
         inkscape:connector-curvature="0"
         id="path27279-0-5"
         style="color:#bebebe;font-style:normal;font-variant:normal;font-weight:normal;font-stretch:normal;font-size:medium;line-height:normal;font-family:'Andale Mono';-inkscape-font-specification:'Andale Mono';text-indent:0;text-align:start;text-decoration:none;text-decoration-line:none;letter-spacing:normal;word-spacing:normal;text-transform:none;direction:ltr;block-progression:tb;writing-mode:lr-tb;text-anchor:start;display:inline;overflow:visible;visibility:visible;fill:#dbdbdb;fill-opacity:1;fill-rule:nonzero;stroke:none;stroke-width:1.78124988;marker:none;enable-background:new"
         sodipodi:nodetypes="ccsccccccccccccccccccccccc" /></g></g><path
     style="opacity:1;fill:#ffffff;fill-opacity:1;stroke:none;stroke-width:1;stroke-miterlimit:4;stroke-dasharray:none;stroke-opacity:0.09411765"
     d="M 13 11.947266 L 13 12 L 13 14.800781 L 13 18 L 13 20 L 21 20 L 21 18 L 21 14.800781 L 21 12 L 21 11.947266 L 13 11.947266 z M 15 14.800781 L 19 14.800781 L 19 18 L 15 18 L 15 14.800781 z "
     transform="scale(0.72727266,0.72727266)"
     id="rect4140" /></svg>