<?xml version="1.0" encoding="UTF-8" standalone="no"?>
<!-- Generator: Adobe Illustrator 13.0.2, SVG Export Plug-In . SVG Version: 6.00 Build 14948)  -->

<svg
   xmlns:dc="http://purl.org/dc/elements/1.1/"
   xmlns:cc="http://creativecommons.org/ns#"
   xmlns:rdf="http://www.w3.org/1999/02/22-rdf-syntax-ns#"
   xmlns:svg="http://www.w3.org/2000/svg"
   xmlns="http://www.w3.org/2000/svg"
   xmlns:xlink="http://www.w3.org/1999/xlink"
   xmlns:sodipodi="http://sodipodi.sourceforge.net/DTD/sodipodi-0.dtd"
   xmlns:inkscape="http://www.inkscape.org/namespaces/inkscape"
   version="1.0"
   id="Foreground"
   x="0px"
   y="0px"
   width="18"
   height="18"
   viewBox="0 0 13.090909 13.090909"
   enable-background="new 0 0 16 16"
   xml:space="preserve"
   sodipodi:version="0.32"
   inkscape:version="0.91 r13725"
   sodipodi:docname="minimize_focused_pressed.svg"
   inkscape:output_extension="org.inkscape.output.svg.inkscape"><metadata
     id="metadata2399"><rdf:RDF><cc:Work
         rdf:about=""><dc:format>image/svg+xml</dc:format><dc:type
           rdf:resource="http://purl.org/dc/dcmitype/StillImage" /><dc:title></dc:title></cc:Work></rdf:RDF></metadata><defs
     id="defs2397"><clipPath
       clipPathUnits="userSpaceOnUse"
       id="clipPath4222"><rect
         style="opacity:1;fill:#00070b;fill-opacity:1;stroke:none;stroke-width:1;stroke-miterlimit:4;stroke-dasharray:none;stroke-opacity:0.09411765"
         id="rect4224"
         width="12.999999"
         height="1.9999999"
         x="570.91699"
         y="508.11047"
         transform="matrix(0.70710678,0.70710678,-0.70710678,0.70710678,0,0)" /></clipPath><clipPath
       clipPathUnits="userSpaceOnUse"
       id="clipPath4222-8"><rect
         style="opacity:1;fill:#00070b;fill-opacity:1;stroke:none;stroke-width:1;stroke-miterlimit:4;stroke-dasharray:none;stroke-opacity:0.09411765"
         id="rect4224-3"
         width="12.999999"
         height="1.9999999"
         x="570.91699"
         y="508.11047"
         transform="matrix(0.70710678,0.70710678,-0.70710678,0.70710678,0,0)" /></clipPath><linearGradient
       id="linearGradient4225"><stop
         id="stop4227"
         offset="0"
         style="stop-color:#aaaaaa;stop-opacity:1" /><stop
         style="stop-color:#000000;stop-opacity:0"
         offset="0.18601279"
         id="stop4229" /><stop
         id="stop4231"
         offset="1"
         style="stop-color:#000000;stop-opacity:0" /></linearGradient><linearGradient
       id="linearGradient4217"><stop
         id="stop4219"
         offset="0"
         style="stop-color:#ffffff;stop-opacity:0.08" /><stop
         style="stop-color:#000000;stop-opacity:0.03"
         offset="0.40000001"
         id="stop4221" /><stop
         id="stop4223"
         offset="1"
         style="stop-color:#000000;stop-opacity:0.08" /></linearGradient><linearGradient
       id="linearGradient3845-6"><stop
         style="stop-color:#4c4c4c;stop-opacity:1;"
         offset="0"
         id="stop3847-0" /><stop
         id="stop3838"
         offset="0.69999999"
         style="stop-color:#525252;stop-opacity:1;" /><stop
         style="stop-color:#565656;stop-opacity:1;"
         offset="1"
         id="stop3849-6" /></linearGradient><linearGradient
       inkscape:collect="always"
       xlink:href="#linearGradient4568"
       id="linearGradient3835-8"
       gradientUnits="userSpaceOnUse"
       gradientTransform="matrix(1.0102455,0,0,1.0796365,-0.0489322,-1.0509573)"
       x1="7.9643841"
       y1="1.1360223"
       x2="7.999999"
       y2="14.003025" /><linearGradient
       id="linearGradient4568"><stop
         id="stop4570"
         offset="0"
         style="stop-color:#000000;stop-opacity:0.12" /><stop
         style="stop-color:#000000;stop-opacity:0"
         offset="0.13344744"
         id="stop4572" /><stop
         id="stop4574"
         offset="1"
         style="stop-color:#000000;stop-opacity:0" /></linearGradient><linearGradient
       inkscape:collect="always"
       xlink:href="#linearGradient4217-2"
       id="linearGradient3842"
       x1="0"
       y1="-8"
       x2="14"
       y2="-8"
       gradientUnits="userSpaceOnUse" /><linearGradient
       id="linearGradient4217-2"><stop
         id="stop4219-4"
         offset="0"
         style="stop-color:#000000;stop-opacity:0.2" /><stop
         style="stop-color:#000000;stop-opacity:0.15000001"
         offset="0.40000001"
         id="stop4221-4" /><stop
         id="stop4223-3"
         offset="1"
         style="stop-color:#000000;stop-opacity:0.1" /></linearGradient><linearGradient
       inkscape:collect="always"
       xlink:href="#linearGradient4225-0"
       id="linearGradient3835"
       gradientUnits="userSpaceOnUse"
       gradientTransform="matrix(1.0102455,0,0,1.0796365,-0.09971995,-1.168295)"
       x1="7.9643841"
       y1="1.1360223"
       x2="7.999999"
       y2="14.003025" /><linearGradient
       id="linearGradient4225-0"><stop
         id="stop4227-4"
         offset="0"
         style="stop-color:#000000;stop-opacity:0.15000001" /><stop
         style="stop-color:#000000;stop-opacity:0.15000001"
         offset="0.49273404"
         id="stop4229-9" /><stop
         id="stop4231-4"
         offset="1"
         style="stop-color:#000000;stop-opacity:0.04" /></linearGradient><linearGradient
       inkscape:collect="always"
       xlink:href="#linearGradient4375"
       id="linearGradient3841"
       gradientUnits="userSpaceOnUse"
       gradientTransform="matrix(1,0,0,1.0666667,5.3578049e-7,-1.0169356)"
       x1="7.9562192"
       y1="0.10053539"
       x2="7.9562192"
       y2="14.73528" /><linearGradient
       id="linearGradient4375"><stop
         id="stop4377"
         offset="0"
         style="stop-color:#3c3c3c;stop-opacity:1" /><stop
         style="stop-color:#525252;stop-opacity:1;"
         offset="0.69999999"
         id="stop4379" /><stop
         id="stop4381"
         offset="1"
         style="stop-color:#464646;stop-opacity:1" /></linearGradient><linearGradient
       inkscape:collect="always"
       xlink:href="#linearGradient4225-0"
       id="linearGradient3835-4"
       gradientUnits="userSpaceOnUse"
       gradientTransform="matrix(0.8565432,0,0,0.91697639,1.15852,0.14023753)"
       x1="7.9643841"
       y1="1.1360223"
       x2="7.999999"
       y2="14.003025" /></defs><sodipodi:namedview
     inkscape:window-height="1056"
     inkscape:window-width="1920"
     inkscape:pageshadow="2"
     inkscape:pageopacity="0"
     guidetolerance="10.0"
     gridtolerance="10.0"
     objecttolerance="10.0"
     borderopacity="1.0"
     bordercolor="#666666"
     pagecolor="#ffffff"
     id="base"
     showgrid="true"
     inkscape:zoom="21.11"
     inkscape:cx="-1.7441686"
     inkscape:cy="13.655857"
     inkscape:window-x="1920"
     inkscape:window-y="24"
     inkscape:current-layer="Foreground"
     showguides="true"
     inkscape:guide-bbox="true"
     borderlayer="true"
     inkscape:showpageshadow="false"
     inkscape:window-maximized="1"><inkscape:grid
       type="xygrid"
       id="grid11246"
       empspacing="5"
       visible="true"
       enabled="true"
       snapvisiblegridlinesonly="true" /></sodipodi:namedview><g
     transform="matrix(0.72727273,0,0,0.72727273,0.74351972,1.1095026)"
     id="g3441"><rect
       style="color:#000000;display:inline;overflow:visible;visibility:visible;opacity:1;fill:none;stroke:url(#linearGradient3835-8);stroke-width:1.04436481;stroke-miterlimit:4;stroke-dasharray:none;stroke-opacity:1;marker:none;enable-background:accumulate"
       id="rect17861-6-5"
       width="13.133193"
       height="12.955634"
       x="1.4664359"
       y="0.56849748"
       rx="1.8876325"
       ry="1.8621123" /><rect
       transform="matrix(0,1,-1,0,0,0)"
       style="color:#000000;display:inline;overflow:visible;visibility:visible;fill:url(#linearGradient3842);fill-opacity:1;stroke:none;stroke-width:1.03780603;marker:none;enable-background:accumulate"
       id="rect17861-6-1-3"
       width="14"
       height="14"
       x="0"
       y="-15"
       rx="1.9841231"
       ry="1.9841231" /><rect
       style="color:#000000;display:inline;overflow:visible;visibility:visible;opacity:1;fill:none;stroke:url(#linearGradient3835);stroke-width:1.04436481;stroke-miterlimit:4;stroke-dasharray:none;stroke-opacity:1;marker:none;enable-background:accumulate"
       id="rect17861-6"
       width="13.133193"
       height="12.955634"
       x="1.4156474"
       y="0.45115969"
       rx="1.8876325"
       ry="1.8621123" /><rect
       style="color:#000000;display:inline;overflow:visible;visibility:visible;opacity:0.4;fill:none;stroke:#ffffff;stroke-width:1.01305413;stroke-miterlimit:4;stroke-dasharray:none;stroke-opacity:0.5;marker:none;enable-background:accumulate"
       id="rect17861-2"
       width="15.038077"
       height="16.038076"
       x="0.44545001"
       y="-0.54460436"
       rx="2.5932524"
       ry="2.5932524" /><rect
       style="color:#000000;display:inline;overflow:visible;visibility:visible;fill:none;stroke:url(#linearGradient3841);stroke-width:1.03279555;stroke-miterlimit:4;stroke-dasharray:none;stroke-opacity:1;marker:none;enable-background:accumulate"
       id="rect17861-9"
       width="15"
       height="14.933332"
       x="0.5"
       y="-0.48360223"
       rx="2.5082481"
       ry="2.5082481" /><rect
       style="color:#000000;display:inline;overflow:visible;visibility:visible;opacity:1;fill:none;stroke:url(#linearGradient3835-4);stroke-width:0.99628651;stroke-miterlimit:4;stroke-dasharray:none;stroke-opacity:1;marker:none;enable-background:accumulate"
       id="rect17861-6-9"
       width="11.135061"
       height="11.003715"
       x="2.4433358"
       y="1.5157019"
       rx="0.84761852"
       ry="0.83762008" /></g><path
     inkscape:connector-curvature="0"
     style="opacity:1;fill:#00070b;fill-opacity:1;stroke:none;stroke-width:1;stroke-miterlimit:4;stroke-dasharray:none;stroke-opacity:0.09411765"
     d="m -10.59627,1.6149787 0,0.03835 0,2.036932 0,2.326704 0,1.454546 5.8181817,0 0,-1.454546 0,-2.326704 0,-2.036932 0,-0.03835 -5.8181817,0 z m 1.4545457,2.075284 2.909091,0 0,2.326704 -2.909091,0 0,-2.326704 z"
     id="rect4140-7" /><g
     inkscape:label="window-close"
     id="g27275-6-6-6"
     style="display:inline;fill:#000000;fill-opacity:1"
     transform="matrix(0.72727272,0,0,0.72727272,-13.454293,-11.249235)"><g
       transform="translate(-41,-760)"
       id="g27277-1-1-2"
       style="display:inline;fill:#000000;fill-opacity:1"><path
         d="m 44.226475,764.17222 1,0 c 0.01037,-1.2e-4 0.02079,-4.6e-4 0.03125,0 0.254951,0.0112 0.50987,0.12858 0.6875,0.3125 l 2.28125,2.28125 2.3125,-2.28125 c 0.265625,-0.2305 0.446672,-0.3055 0.6875,-0.3125 l 1,0 0,1 c 0,0.28647 -0.03434,0.55065 -0.25,0.75 l -2.28125,2.28125 2.25,2.25 c 0.188188,0.18817 0.281242,0.45345 0.28125,0.71875 l 0,1 -1,0 c -0.265301,-1e-5 -0.530586,-0.0931 -0.71875,-0.28125 l -2.28125,-2.28125 -2.28125,2.28125 c -0.188164,0.18819 -0.45346,0.28125 -0.71875,0.28125 l -1,0 0,-1 c -3e-6,-0.26529 0.09306,-0.53058 0.28125,-0.71875 l 2.28125,-2.25 -2.28125,-2.28125 c -0.210742,-0.19463 -0.30316,-0.46925 -0.28125,-0.75 l 0,-1 z"
         inkscape:connector-curvature="0"
         id="path27279-0-5-8"
         style="color:#bebebe;font-style:normal;font-variant:normal;font-weight:normal;font-stretch:normal;font-size:medium;line-height:normal;font-family:'Andale Mono';-inkscape-font-specification:'Andale Mono';text-indent:0;text-align:start;text-decoration:none;text-decoration-line:none;letter-spacing:normal;word-spacing:normal;text-transform:none;direction:ltr;block-progression:tb;writing-mode:lr-tb;text-anchor:start;display:inline;overflow:visible;visibility:visible;fill:#00070b;fill-opacity:1;fill-rule:nonzero;stroke:none;stroke-width:1.78124988;marker:none;enable-background:new"
         sodipodi:nodetypes="ccsccccccccccccccccccccccc" /></g></g><g
     style="display:inline;fill:#ffffff;fill-opacity:0.55000001"
     id="g27277-1-1-1"
     transform="matrix(0.3678403,-0.50207904,0.3678403,0.50207904,-293.76196,-352.02059)"
     clip-path="url(#clipPath4222-8)"><path
       sodipodi:nodetypes="ccsccccccccccccccccccccccc"
       style="color:#bebebe;font-style:normal;font-variant:normal;font-weight:normal;font-stretch:normal;font-size:medium;line-height:normal;font-family:'Andale Mono';-inkscape-font-specification:'Andale Mono';text-indent:0;text-align:start;text-decoration:none;text-decoration-line:none;letter-spacing:normal;word-spacing:normal;text-transform:none;direction:ltr;block-progression:tb;writing-mode:lr-tb;text-anchor:start;display:inline;overflow:visible;visibility:visible;fill:#ffffff;fill-opacity:0.55000001;fill-rule:nonzero;stroke:none;stroke-width:1.78124988;marker:none;enable-background:new"
       id="path27279-0-5-5"
       inkscape:connector-curvature="0"
       d="m 44.226475,764.17222 1,0 c 0.01037,-1.2e-4 0.02079,-4.6e-4 0.03125,0 0.254951,0.0112 0.50987,0.12858 0.6875,0.3125 l 2.28125,2.28125 2.3125,-2.28125 c 0.265625,-0.2305 0.446672,-0.3055 0.6875,-0.3125 l 1,0 0,1 c 0,0.28647 -0.03434,0.55065 -0.25,0.75 l -2.28125,2.28125 2.25,2.25 c 0.188188,0.18817 0.281242,0.45345 0.28125,0.71875 l 0,1 -1,0 c -0.265301,-1e-5 -0.530586,-0.0931 -0.71875,-0.28125 l -2.28125,-2.28125 -2.28125,2.28125 c -0.188164,0.18819 -0.45346,0.28125 -0.71875,0.28125 l -1,0 0,-1 c -3e-6,-0.26529 0.09306,-0.53058 0.28125,-0.71875 l 2.28125,-2.25 -2.28125,-2.28125 c -0.210742,-0.19463 -0.30316,-0.46925 -0.28125,-0.75 l 0,-1 z" /></g><g
     style="display:inline;fill:#131313;fill-opacity:1"
     id="g27277-1-1"
     transform="matrix(0.3678403,-0.52643995,0.3678403,0.52643995,-293.75581,-370.29922)"
     clip-path="url(#clipPath4222)"><path
       sodipodi:nodetypes="ccsccccccccccccccccccccccc"
       style="color:#bebebe;font-style:normal;font-variant:normal;font-weight:normal;font-stretch:normal;font-size:medium;line-height:normal;font-family:'Andale Mono';-inkscape-font-specification:'Andale Mono';text-indent:0;text-align:start;text-decoration:none;text-decoration-line:none;letter-spacing:normal;word-spacing:normal;text-transform:none;direction:ltr;block-progression:tb;writing-mode:lr-tb;text-anchor:start;display:inline;overflow:visible;visibility:visible;fill:#131313;fill-opacity:1;fill-rule:nonzero;stroke:none;stroke-width:1.78124988;marker:none;enable-background:new"
       id="path27279-0-5"
       inkscape:connector-curvature="0"
       d="m 44.226475,764.17222 1,0 c 0.01037,-1.2e-4 0.02079,-4.6e-4 0.03125,0 0.254951,0.0112 0.50987,0.12858 0.6875,0.3125 l 2.28125,2.28125 2.3125,-2.28125 c 0.265625,-0.2305 0.446672,-0.3055 0.6875,-0.3125 l 1,0 0,1 c 0,0.28647 -0.03434,0.55065 -0.25,0.75 l -2.28125,2.28125 2.25,2.25 c 0.188188,0.18817 0.281242,0.45345 0.28125,0.71875 l 0,1 -1,0 c -0.265301,-1e-5 -0.530586,-0.0931 -0.71875,-0.28125 l -2.28125,-2.28125 -2.28125,2.28125 c -0.188164,0.18819 -0.45346,0.28125 -0.71875,0.28125 l -1,0 0,-1 c -3e-6,-0.26529 0.09306,-0.53058 0.28125,-0.71875 l 2.28125,-2.25 -2.28125,-2.28125 c -0.210742,-0.19463 -0.30316,-0.46925 -0.28125,-0.75 l 0,-1 z" /></g><path
     style="opacity:1;fill:#dbdbdb;fill-opacity:1;stroke:none;stroke-width:1;stroke-miterlimit:4;stroke-dasharray:none;stroke-opacity:0.09411765"
     d="m -12.422203,3.1236127 0,0.03835 0,2.036932 0,2.326704 0,1.454546 5.8181813,0 0,-1.454546 0,-2.326704 0,-2.036932 0,-0.03835 -5.8181813,0 z m 1.454545,2.075284 2.9090909,0 0,2.326704 -2.9090909,0 0,-2.326704 z"
     id="rect4140"
     inkscape:connector-curvature="0" /></svg>